<?xml version="1.0" encoding="iso-8859-1"?>
<!-- Generator: Adobe Illustrator 19.0.0, SVG Export Plug-In . SVG Version: 6.00 Build 0)  -->
<svg version="1.1" id="Layer_1" xmlns="http://www.w3.org/2000/svg" xmlns:xlink="http://www.w3.org/1999/xlink" x="0px" y="0px"
	 viewBox="0 0 512 512" style="enable-background:new 0 0 512 512;" xml:space="preserve">
<g>
	<g>
		<path d="M222.149,256L441.73,36.418C455.169,22.979,445.651,0,426.645,0H319.979c-5.658,0-11.084,2.248-15.085,6.248
			L70.227,240.915c-8.331,8.331-8.331,21.839,0,30.17l234.667,234.667c4.001,4.001,9.427,6.248,15.085,6.248h106.667
			c19.006,0,28.524-22.979,15.085-36.418L222.149,256z M328.815,469.333L115.482,256L328.815,42.667h46.327L176.894,240.915
			c-8.331,8.331-8.331,21.839,0,30.17l198.248,198.248H328.815z" />
	</g>
</g>
<g>
</g>
<g>
</g>
<g>
</g>
<g>
</g>
<g>
</g>
<g>
</g>
<g>
</g>
<g>
</g>
<g>
</g>
<g>
</g>
<g>
</g>
<g>
</g>
<g>
</g>
<g>
</g>
<g>
</g>
</svg>
